<svg width="200" height="200" viewBox="0 0 200 200" fill="none" xmlns="http://www.w3.org/2000/svg">
<path d="M162 30H42C36.4772 30 32 34.4772 32 40V160C32 165.523 36.4772 170 42 170H162C167.523 170 172 165.523 172 160V40C172 34.4772 167.523 30 162 30Z" fill="#F9DECE"/>
<g filter="url(#filter0_d_955_2418)">
<path d="M146 40H11C8.23858 40 6 42.2386 6 45V70C6 72.7614 8.23858 75 11 75H146C148.761 75 151 72.7614 151 70V45C151 42.2386 148.761 40 146 40Z" fill="white"/>
</g>
<path d="M75 48H49C47.3431 48 46 49.3431 46 51C46 52.6569 47.3431 54 49 54H75C76.6569 54 78 52.6569 78 51C78 49.3431 76.6569 48 75 48Z" fill="#F0D0AA"/>
<path d="M93 61H49C47.3431 61 46 62.3431 46 64C46 65.6569 47.3431 67 49 67H93C94.6569 67 96 65.6569 96 64C96 62.3431 94.6569 61 93 61Z" fill="#FBF3E9"/>
<path d="M33 43H14C11.2386 43 9 45.2386 9 48V67C9 69.7614 11.2386 72 14 72H33C35.7614 72 38 69.7614 38 67V48C38 45.2386 35.7614 43 33 43Z" fill="#DA8927"/>
<path d="M21.222 60.78H23.222L23.244 60.01C23.244 58.998 23.882 58.734 24.784 58.448C25.6888 58.1906 26.4852 57.6456 27.0528 56.8955C27.6204 56.1453 27.9283 55.2307 27.93 54.29C27.9498 53.7157 27.8502 53.1435 27.6374 52.6096C27.4246 52.0758 27.1033 51.5919 26.6939 51.1886C26.2844 50.7854 25.7957 50.4715 25.2586 50.2669C24.7216 50.0623 24.148 49.9714 23.574 50C22.9674 49.9868 22.3644 50.0969 21.8017 50.3237C21.2389 50.5505 20.7281 50.8893 20.3002 51.3194C19.8723 51.7495 19.5363 52.2621 19.3124 52.8261C19.0886 53.39 18.9816 53.9935 18.998 54.6H21.066C21.0581 54.2651 21.1172 53.9321 21.2397 53.6203C21.3623 53.3085 21.5458 53.0244 21.7796 52.7845C22.0133 52.5445 22.2926 52.3537 22.6011 52.2231C22.9096 52.0925 23.241 52.0248 23.576 52.024C23.8781 52.0065 24.1804 52.0542 24.4623 52.1639C24.7443 52.2737 24.9994 52.4428 25.2102 52.6599C25.421 52.8769 25.5826 53.1368 25.684 53.4219C25.7855 53.707 25.8243 54.0106 25.798 54.312C25.7847 54.7999 25.615 55.2706 25.314 55.6548C25.013 56.039 24.5965 56.3164 24.126 56.446L23.4 56.734C22.6892 56.9053 22.0686 57.3372 21.6612 57.9443C21.2538 58.5514 21.0891 59.2893 21.2 60.012L21.222 60.78ZM22.212 65.534C22.4078 65.541 22.6031 65.5086 22.7862 65.4388C22.9693 65.369 23.1366 65.2632 23.2781 65.1276C23.4196 64.9921 23.5325 64.8295 23.6101 64.6496C23.6877 64.4696 23.7285 64.276 23.73 64.08C23.7282 63.8842 23.6873 63.6908 23.6095 63.5111C23.5318 63.3313 23.4189 63.169 23.2774 63.0337C23.1359 62.8984 22.9687 62.7927 22.7857 62.723C22.6027 62.6534 22.4076 62.6211 22.212 62.628C22.0163 62.6211 21.8212 62.6534 21.6382 62.723C21.4552 62.7927 21.2881 62.8984 21.1466 63.0337C21.0051 63.169 20.8921 63.3313 20.8144 63.5111C20.7367 63.6908 20.6957 63.8842 20.694 64.08C20.6955 64.276 20.7362 64.4696 20.8138 64.6496C20.8914 64.8295 21.0044 64.9921 21.1459 65.1276C21.2874 65.2632 21.4547 65.369 21.6378 65.4388C21.8209 65.5086 22.0161 65.541 22.212 65.534Z" fill="white"/>
<g filter="url(#filter1_d_955_2418)">
<path d="M54 83H189C190.326 83 191.598 83.5268 192.536 84.4645C193.473 85.4021 194 86.6739 194 88V113C194 114.326 193.473 115.598 192.536 116.536C191.598 117.473 190.326 118 189 118H54C52.6739 118 51.4021 117.473 50.4645 116.536C49.5268 115.598 49 114.326 49 113V88C49 86.6739 49.5268 85.4021 50.4645 84.4645C51.4021 83.5268 52.6739 83 54 83V83Z" fill="white"/>
</g>
<path d="M118 91H92C90.3431 91 89 92.3431 89 94C89 95.6569 90.3431 97 92 97H118C119.657 97 121 95.6569 121 94C121 92.3431 119.657 91 118 91Z" fill="#F0D0AA"/>
<path d="M136 104H92C90.3431 104 89 105.343 89 107C89 108.657 90.3431 110 92 110H136C137.657 110 139 108.657 139 107C139 105.343 137.657 104 136 104Z" fill="#FBF3E9"/>
<path d="M76 86H57C54.2386 86 52 88.2386 52 91V110C52 112.761 54.2386 115 57 115H76C78.7614 115 81 112.761 81 110V91C81 88.2386 78.7614 86 76 86Z" fill="#DA8927"/>
<path d="M64.222 103.78H66.222L66.244 103.01C66.244 101.998 66.882 101.734 67.784 101.448C68.6888 101.191 69.4852 100.646 70.0528 99.8955C70.6204 99.1453 70.9283 98.2307 70.93 97.29C70.9498 96.7157 70.8502 96.1435 70.6374 95.6096C70.4246 95.0758 70.1033 94.5919 69.6939 94.1886C69.2844 93.7854 68.7957 93.4715 68.2586 93.2669C67.7216 93.0623 67.148 92.9714 66.574 93C65.9674 92.9868 65.3644 93.0969 64.8017 93.3237C64.2389 93.5505 63.7281 93.8893 63.3002 94.3194C62.8723 94.7495 62.5363 95.2621 62.3124 95.8261C62.0886 96.39 61.9816 96.9935 61.998 97.6H64.066C64.0581 97.2651 64.1172 96.9321 64.2397 96.6203C64.3623 96.3085 64.5458 96.0244 64.7796 95.7845C65.0133 95.5445 65.2926 95.3537 65.6011 95.2231C65.9096 95.0925 66.241 95.0248 66.576 95.024C66.8781 95.0065 67.1804 95.0542 67.4623 95.1639C67.7443 95.2737 67.9994 95.4428 68.2102 95.6599C68.421 95.8769 68.5826 96.1368 68.684 96.4219C68.7855 96.707 68.8243 97.0106 68.798 97.312C68.7847 97.7999 68.615 98.2706 68.314 98.6548C68.013 99.039 67.5965 99.3164 67.126 99.446L66.4 99.734C65.6892 99.9053 65.0686 100.337 64.6612 100.944C64.2538 101.551 64.0891 102.289 64.2 103.012L64.222 103.78ZM65.212 108.534C65.4078 108.541 65.6031 108.509 65.7862 108.439C65.9693 108.369 66.1366 108.263 66.2781 108.128C66.4196 107.992 66.5325 107.83 66.6101 107.65C66.6877 107.47 66.7285 107.276 66.73 107.08C66.7282 106.884 66.6873 106.691 66.6095 106.511C66.5318 106.331 66.4189 106.169 66.2774 106.034C66.1359 105.898 65.9687 105.793 65.7857 105.723C65.6027 105.653 65.4076 105.621 65.212 105.628C65.0163 105.621 64.8212 105.653 64.6382 105.723C64.4552 105.793 64.2881 105.898 64.1466 106.034C64.0051 106.169 63.8921 106.331 63.8144 106.511C63.7367 106.691 63.6957 106.884 63.694 107.08C63.6955 107.276 63.7362 107.47 63.8138 107.65C63.8914 107.83 64.0044 107.992 64.1459 108.128C64.2874 108.263 64.4547 108.369 64.6378 108.439C64.8209 108.509 65.0161 108.541 65.212 108.534Z" fill="white"/>
<g filter="url(#filter2_d_955_2418)">
<path d="M11 126H146C147.326 126 148.598 126.527 149.536 127.464C150.473 128.402 151 129.674 151 131V156C151 157.326 150.473 158.598 149.536 159.536C148.598 160.473 147.326 161 146 161H11C9.67392 161 8.40215 160.473 7.46447 159.536C6.52678 158.598 6 157.326 6 156V131C6 129.674 6.52678 128.402 7.46447 127.464C8.40215 126.527 9.67392 126 11 126V126Z" fill="white"/>
</g>
<path d="M75 134H49C47.3431 134 46 135.343 46 137C46 138.657 47.3431 140 49 140H75C76.6569 140 78 138.657 78 137C78 135.343 76.6569 134 75 134Z" fill="#F0D0AA"/>
<path d="M93 147H49C47.3431 147 46 148.343 46 150C46 151.657 47.3431 153 49 153H93C94.6569 153 96 151.657 96 150C96 148.343 94.6569 147 93 147Z" fill="#FBF3E9"/>
<path d="M33 129H14C11.2386 129 9 131.239 9 134V153C9 155.761 11.2386 158 14 158H33C35.7614 158 38 155.761 38 153V134C38 131.239 35.7614 129 33 129Z" fill="#DA8927"/>
<path d="M21.222 146.78H23.222L23.244 146.01C23.244 144.998 23.882 144.734 24.784 144.448C25.6888 144.191 26.4852 143.646 27.0528 142.895C27.6204 142.145 27.9283 141.231 27.93 140.29C27.9498 139.716 27.8502 139.143 27.6374 138.61C27.4246 138.076 27.1033 137.592 26.6939 137.189C26.2844 136.785 25.7957 136.472 25.2586 136.267C24.7216 136.062 24.148 135.971 23.574 136C22.9674 135.987 22.3644 136.097 21.8017 136.324C21.2389 136.55 20.7281 136.889 20.3002 137.319C19.8723 137.75 19.5363 138.262 19.3124 138.826C19.0886 139.39 18.9816 139.993 18.998 140.6H21.066C21.0581 140.265 21.1172 139.932 21.2397 139.62C21.3623 139.309 21.5458 139.024 21.7796 138.784C22.0133 138.545 22.2926 138.354 22.6011 138.223C22.9096 138.093 23.241 138.025 23.576 138.024C23.8781 138.006 24.1804 138.054 24.4623 138.164C24.7443 138.274 24.9994 138.443 25.2102 138.66C25.421 138.877 25.5826 139.137 25.684 139.422C25.7855 139.707 25.8243 140.011 25.798 140.312C25.7847 140.8 25.615 141.271 25.314 141.655C25.013 142.039 24.5965 142.316 24.126 142.446L23.4 142.734C22.6892 142.905 22.0686 143.337 21.6612 143.944C21.2538 144.551 21.0891 145.289 21.2 146.012L21.222 146.78ZM22.212 151.534C22.4078 151.541 22.6031 151.509 22.7862 151.439C22.9693 151.369 23.1366 151.263 23.2781 151.128C23.4196 150.992 23.5325 150.83 23.6101 150.65C23.6877 150.47 23.7285 150.276 23.73 150.08C23.7282 149.884 23.6873 149.691 23.6095 149.511C23.5318 149.331 23.4189 149.169 23.2774 149.034C23.1359 148.898 22.9687 148.793 22.7857 148.723C22.6027 148.653 22.4076 148.621 22.212 148.628C22.0163 148.621 21.8212 148.653 21.6382 148.723C21.4552 148.793 21.2881 148.898 21.1466 149.034C21.0051 149.169 20.8921 149.331 20.8144 149.511C20.7367 149.691 20.6957 149.884 20.694 150.08C20.6955 150.276 20.7362 150.47 20.8138 150.65C20.8914 150.83 21.0044 150.992 21.1459 151.128C21.2874 151.263 21.4547 151.369 21.6378 151.439C21.8209 151.509 22.0161 151.541 22.212 151.534Z" fill="white"/>
<defs>
<filter id="filter0_d_955_2418" x="0" y="37" width="157" height="47" filterUnits="userSpaceOnUse" color-interpolation-filters="sRGB">
<feFlood flood-opacity="0" result="BackgroundImageFix"/>
<feColorMatrix in="SourceAlpha" type="matrix" values="0 0 0 0 0 0 0 0 0 0 0 0 0 0 0 0 0 0 127 0" result="hardAlpha"/>
<feOffset dy="3"/>
<feGaussianBlur stdDeviation="3"/>
<feColorMatrix type="matrix" values="0 0 0 0 0 0 0 0 0 0 0 0 0 0 0 0 0 0 0.161 0"/>
<feBlend mode="normal" in2="BackgroundImageFix" result="effect1_dropShadow_955_2418"/>
<feBlend mode="normal" in="SourceGraphic" in2="effect1_dropShadow_955_2418" result="shape"/>
</filter>
<filter id="filter1_d_955_2418" x="43" y="80" width="157" height="47" filterUnits="userSpaceOnUse" color-interpolation-filters="sRGB">
<feFlood flood-opacity="0" result="BackgroundImageFix"/>
<feColorMatrix in="SourceAlpha" type="matrix" values="0 0 0 0 0 0 0 0 0 0 0 0 0 0 0 0 0 0 127 0" result="hardAlpha"/>
<feOffset dy="3"/>
<feGaussianBlur stdDeviation="3"/>
<feColorMatrix type="matrix" values="0 0 0 0 0 0 0 0 0 0 0 0 0 0 0 0 0 0 0.161 0"/>
<feBlend mode="normal" in2="BackgroundImageFix" result="effect1_dropShadow_955_2418"/>
<feBlend mode="normal" in="SourceGraphic" in2="effect1_dropShadow_955_2418" result="shape"/>
</filter>
<filter id="filter2_d_955_2418" x="0" y="123" width="157" height="47" filterUnits="userSpaceOnUse" color-interpolation-filters="sRGB">
<feFlood flood-opacity="0" result="BackgroundImageFix"/>
<feColorMatrix in="SourceAlpha" type="matrix" values="0 0 0 0 0 0 0 0 0 0 0 0 0 0 0 0 0 0 127 0" result="hardAlpha"/>
<feOffset dy="3"/>
<feGaussianBlur stdDeviation="3"/>
<feColorMatrix type="matrix" values="0 0 0 0 0 0 0 0 0 0 0 0 0 0 0 0 0 0 0.161 0"/>
<feBlend mode="normal" in2="BackgroundImageFix" result="effect1_dropShadow_955_2418"/>
<feBlend mode="normal" in="SourceGraphic" in2="effect1_dropShadow_955_2418" result="shape"/>
</filter>
</defs>
</svg>
